<svg xmlns="http://www.w3.org/2000/svg" xmlns:xlink="http://www.w3.org/1999/xlink" width="1080" zoomAndPan="magnify" viewBox="0 0 810 1012.49997" height="1350" preserveAspectRatio="xMidYMid meet" version="1.0"><defs><g/><clipPath id="f638d10677"><path d="M 9.851562 264.375 L 254.980469 264.375 L 254.980469 509.507812 L 9.851562 509.507812 Z M 9.851562 264.375 " clip-rule="nonzero"/></clipPath><clipPath id="9f87445aac"><rect x="0" width="624" y="0" height="164"/></clipPath><clipPath id="22f66db1b0"><rect x="0" width="558" y="0" height="68"/></clipPath></defs><g clip-path="url(#f638d10677)"><path fill="#ffffff" d="M 132.394531 509.460938 C 64.824219 509.460938 9.851562 454.488281 9.851562 386.917969 C 9.851562 319.347656 64.824219 264.375 132.394531 264.375 C 199.964844 264.375 254.933594 319.347656 254.933594 386.917969 L 249.644531 386.917969 C 249.644531 322.265625 197.046875 269.667969 132.394531 269.667969 C 67.742188 269.667969 15.140625 322.265625 15.140625 386.917969 C 15.140625 451.570312 67.742188 504.171875 132.394531 504.171875 Z M 132.394531 509.460938 " fill-opacity="1" fill-rule="nonzero"/></g><path fill="#ffffff" d="M 132.394531 498.878906 C 70.65625 498.878906 20.433594 448.652344 20.433594 386.917969 C 20.433594 325.183594 70.65625 274.957031 132.394531 274.957031 C 194.128906 274.957031 244.355469 325.183594 244.355469 386.917969 L 239.0625 386.917969 C 239.0625 328.101562 191.210938 280.246094 132.394531 280.246094 C 73.574219 280.246094 25.722656 328.101562 25.722656 386.917969 C 25.722656 445.738281 73.574219 493.589844 132.394531 493.589844 Z M 132.394531 498.878906 " fill-opacity="1" fill-rule="nonzero"/><path fill="#ffffff" d="M 132.394531 488.300781 C 76.492188 488.300781 31.011719 442.820312 31.011719 386.917969 C 31.011719 331.015625 76.492188 285.539062 132.394531 285.539062 C 188.292969 285.539062 233.773438 331.015625 233.773438 386.917969 L 228.484375 386.917969 C 228.484375 333.933594 185.378906 290.828125 132.394531 290.828125 C 79.410156 290.828125 36.304688 333.933594 36.304688 386.917969 C 36.304688 439.902344 79.410156 483.007812 132.394531 483.007812 Z M 132.394531 488.300781 " fill-opacity="1" fill-rule="nonzero"/><path fill="#ffffff" d="M 132.394531 477.71875 C 82.328125 477.71875 41.59375 436.984375 41.59375 386.917969 C 41.59375 336.851562 82.328125 296.121094 132.394531 296.121094 C 182.460938 296.121094 223.191406 336.851562 223.191406 386.917969 L 217.902344 386.917969 C 217.902344 339.769531 179.542969 301.410156 132.394531 301.410156 C 85.242188 301.410156 46.882812 339.769531 46.882812 386.917969 C 46.882812 434.070312 85.242188 472.429688 132.394531 472.429688 Z M 132.394531 477.71875 " fill-opacity="1" fill-rule="nonzero"/><path fill="#ffffff" d="M 132.394531 467.136719 C 88.160156 467.136719 52.175781 431.152344 52.175781 386.917969 C 52.175781 342.6875 88.160156 306.699219 132.394531 306.699219 C 176.625 306.699219 212.613281 342.6875 212.613281 386.917969 L 207.320312 386.917969 C 207.320312 345.601562 173.710938 311.992188 132.394531 311.992188 C 91.078125 311.992188 57.464844 345.601562 57.464844 386.917969 C 57.464844 428.234375 91.078125 461.847656 132.394531 461.847656 Z M 132.394531 467.136719 " fill-opacity="1" fill-rule="nonzero"/><path fill="#ffffff" d="M 132.394531 456.558594 C 93.996094 456.558594 62.753906 425.316406 62.753906 386.917969 C 62.753906 348.519531 93.996094 317.28125 132.394531 317.28125 C 170.792969 317.28125 202.03125 348.519531 202.03125 386.917969 L 196.742188 386.917969 C 196.742188 351.4375 167.875 322.570312 132.394531 322.570312 C 96.910156 322.570312 68.046875 351.4375 68.046875 386.917969 C 68.046875 422.398438 96.910156 451.265625 132.394531 451.265625 Z M 132.394531 456.558594 " fill-opacity="1" fill-rule="nonzero"/><path fill="#ffffff" d="M 132.394531 445.976562 C 99.828125 445.976562 73.335938 419.484375 73.335938 386.917969 C 73.335938 354.355469 99.828125 327.863281 132.394531 327.863281 C 164.957031 327.863281 191.449219 354.355469 191.449219 386.917969 L 186.160156 386.917969 C 186.160156 357.269531 162.039062 333.152344 132.394531 333.152344 C 102.746094 333.152344 78.625 357.269531 78.625 386.917969 C 78.625 416.566406 102.746094 440.683594 132.394531 440.683594 Z M 132.394531 445.976562 " fill-opacity="1" fill-rule="nonzero"/><path fill="#ffffff" d="M 132.394531 435.394531 C 105.664062 435.394531 83.917969 413.648438 83.917969 386.917969 C 83.917969 360.1875 105.664062 338.441406 132.394531 338.441406 C 159.125 338.441406 180.871094 360.1875 180.871094 386.917969 L 175.578125 386.917969 C 175.578125 363.105469 156.207031 343.734375 132.394531 343.734375 C 108.582031 343.734375 89.207031 363.105469 89.207031 386.917969 C 89.207031 410.730469 108.582031 430.105469 132.394531 430.105469 Z M 132.394531 435.394531 " fill-opacity="1" fill-rule="nonzero"/><path fill="#ffffff" d="M 132.394531 424.8125 C 111.496094 424.8125 94.496094 407.816406 94.496094 386.917969 C 94.496094 366.023438 111.496094 349.023438 132.394531 349.023438 C 153.289062 349.023438 170.289062 366.023438 170.289062 386.917969 L 165 386.917969 C 165 368.941406 150.371094 354.3125 132.394531 354.3125 C 114.414062 354.3125 99.789062 368.941406 99.789062 386.917969 C 99.789062 404.898438 114.414062 419.523438 132.394531 419.523438 Z M 132.394531 424.8125 " fill-opacity="1" fill-rule="nonzero"/><path fill="#ffffff" d="M 132.394531 414.234375 C 117.332031 414.234375 105.078125 401.980469 105.078125 386.917969 C 105.078125 371.855469 117.332031 359.605469 132.394531 359.605469 C 147.457031 359.605469 159.707031 371.855469 159.707031 386.917969 L 154.417969 386.917969 C 154.417969 374.773438 144.539062 364.894531 132.394531 364.894531 C 120.25 364.894531 110.367188 374.773438 110.367188 386.917969 C 110.367188 399.0625 120.25 408.945312 132.394531 408.945312 Z M 132.394531 414.234375 " fill-opacity="1" fill-rule="nonzero"/><g transform="matrix(1, 0, 0, 1, 138, 369)"><g clip-path="url(#9f87445aac)"><g fill="#ffffff" fill-opacity="1"><g transform="translate(0.387236, 111.33989)"><g><path d="M 7.4375 0 L 7.4375 -69.625 L 24.390625 -69.625 L 24.390625 0 Z M 7.4375 0 "/></g></g></g><g fill="#ffffff" fill-opacity="1"><g transform="translate(29.74016, 111.33989)"><g><path d="M 52.765625 -69.8125 L 69.71875 -69.8125 L 69.71875 0 L 52.765625 0 L 24.390625 -43.9375 L 24.390625 0 L 7.4375 0 L 7.4375 -69.8125 L 24.390625 -69.8125 L 52.765625 -25.890625 Z M 52.765625 -69.8125 "/></g></g></g><g fill="#ffffff" fill-opacity="1"><g transform="translate(104.411934, 111.33989)"><g><path d="M 52.765625 -69.8125 L 69.71875 -69.8125 L 69.71875 0 L 52.765625 0 L 24.390625 -43.9375 L 24.390625 0 L 7.4375 0 L 7.4375 -69.8125 L 24.390625 -69.8125 L 52.765625 -25.890625 Z M 52.765625 -69.8125 "/></g></g></g><g fill="#ffffff" fill-opacity="1"><g transform="translate(179.083709, 111.33989)"><g><path d="M 52.40625 -20.421875 C 55.75 -24.066406 57.421875 -28.925781 57.421875 -35 C 57.421875 -41.082031 55.75 -45.941406 52.40625 -49.578125 C 49.070312 -53.222656 44.609375 -55.046875 39.015625 -55.046875 C 33.429688 -55.046875 28.96875 -53.222656 25.625 -49.578125 C 22.289062 -45.941406 20.625 -41.082031 20.625 -35 C 20.625 -28.925781 22.289062 -24.066406 25.625 -20.421875 C 28.96875 -16.785156 33.429688 -14.96875 39.015625 -14.96875 C 44.609375 -14.96875 49.070312 -16.785156 52.40625 -20.421875 Z M 13.734375 -9.421875 C 6.828125 -16.160156 3.375 -24.6875 3.375 -35 C 3.375 -45.320312 6.828125 -53.835938 13.734375 -60.546875 C 20.640625 -67.253906 29.097656 -70.609375 39.109375 -70.609375 C 49.128906 -70.609375 57.5625 -67.253906 64.40625 -60.546875 C 71.25 -53.835938 74.671875 -45.320312 74.671875 -35 C 74.671875 -24.6875 71.234375 -16.160156 64.359375 -9.421875 C 57.484375 -2.679688 49.050781 0.6875 39.0625 0.6875 C 29.082031 0.6875 20.640625 -2.679688 13.734375 -9.421875 Z M 13.734375 -9.421875 "/></g></g></g><g fill="#ffffff" fill-opacity="1"><g transform="translate(254.74712, 111.33989)"><g><path d="M 31.046875 -57.21875 C 28.929688 -57.21875 27.191406 -56.65625 25.828125 -55.53125 C 24.472656 -54.40625 23.796875 -52.785156 23.796875 -50.671875 C 23.796875 -48.554688 24.421875 -46.851562 25.671875 -45.5625 C 26.929688 -44.28125 28.570312 -43.289062 30.59375 -42.59375 C 32.613281 -41.894531 34.863281 -41.234375 37.34375 -40.609375 C 39.820312 -39.984375 42.28125 -39.222656 44.71875 -38.328125 C 47.164062 -37.429688 49.398438 -36.320312 51.421875 -35 C 53.441406 -33.6875 55.078125 -31.820312 56.328125 -29.40625 C 57.585938 -26.988281 58.21875 -24.097656 58.21875 -20.734375 C 58.21875 -14.847656 55.816406 -9.804688 51.015625 -5.609375 C 46.222656 -1.410156 39.910156 0.6875 32.078125 0.6875 C 24.242188 0.6875 17.929688 -1.191406 13.140625 -4.953125 C 8.347656 -8.722656 5.953125 -14.082031 5.953125 -21.03125 L 24 -21.03125 C 24.457031 -15.46875 27.300781 -12.6875 32.53125 -12.6875 C 34.976562 -12.6875 36.894531 -13.332031 38.28125 -14.625 C 39.664062 -15.914062 40.359375 -17.550781 40.359375 -19.53125 C 40.359375 -21.519531 39.726562 -23.140625 38.46875 -24.390625 C 37.21875 -25.648438 35.582031 -26.644531 33.5625 -27.375 C 31.550781 -28.101562 29.304688 -28.78125 26.828125 -29.40625 C 24.347656 -30.03125 21.882812 -30.804688 19.4375 -31.734375 C 16.988281 -32.660156 14.753906 -33.765625 12.734375 -35.046875 C 10.722656 -36.335938 9.085938 -38.191406 7.828125 -40.609375 C 6.578125 -43.023438 5.953125 -45.882812 5.953125 -49.1875 C 5.953125 -55.664062 8.363281 -60.851562 13.1875 -64.75 C 18.007812 -68.65625 24.171875 -70.609375 31.671875 -70.609375 C 39.179688 -70.609375 45.25 -68.90625 49.875 -65.5 C 54.507812 -62.09375 56.925781 -56.722656 57.125 -49.390625 L 38.671875 -49.390625 C 38.410156 -51.898438 37.601562 -53.832031 36.25 -55.1875 C 34.894531 -56.539062 33.160156 -57.21875 31.046875 -57.21875 Z M 31.046875 -57.21875 "/></g></g></g><g fill="#ffffff" fill-opacity="1"><g transform="translate(316.428141, 111.33989)"><g><path d="M 60.5 -48.296875 C 60.5 -43.597656 58.8125 -39.066406 55.4375 -34.703125 C 53.65625 -32.460938 50.992188 -30.628906 47.453125 -29.203125 C 43.910156 -27.785156 39.726562 -27.078125 34.90625 -27.078125 L 24.390625 -27.078125 L 24.390625 0 L 7.4375 0 L 7.4375 -69.625 L 34.90625 -69.625 C 42.96875 -69.625 49.25 -67.539062 53.75 -63.375 C 58.25 -59.207031 60.5 -54.179688 60.5 -48.296875 Z M 24.390625 -39.96875 L 34.90625 -39.96875 C 37.488281 -39.96875 39.519531 -40.726562 41 -42.25 C 42.488281 -43.769531 43.234375 -45.769531 43.234375 -48.25 C 43.234375 -50.726562 42.472656 -52.757812 40.953125 -54.34375 C 39.429688 -55.925781 37.414062 -56.71875 34.90625 -56.71875 L 24.390625 -56.71875 Z M 24.390625 -39.96875 "/></g></g></g><g fill="#ffffff" fill-opacity="1"><g transform="translate(377.216685, 111.33989)"><g><path d="M 51.265625 -69.625 L 68.234375 -69.625 L 68.234375 0 L 51.265625 0 L 51.265625 -28.859375 L 24.390625 -28.859375 L 24.390625 0 L 7.4375 0 L 7.4375 -69.625 L 24.390625 -69.625 L 24.390625 -41.75 L 51.265625 -41.75 Z M 51.265625 -69.625 "/></g></g></g><g fill="#ffffff" fill-opacity="1"><g transform="translate(450.400957, 111.33989)"><g><path d="M 49.59375 -69.8125 L 49.59375 -56.921875 L 24.390625 -56.921875 L 24.390625 -41.953125 L 46.609375 -41.953125 L 46.609375 -29.0625 L 24.390625 -29.0625 L 24.390625 -12.890625 L 49.59375 -12.890625 L 49.59375 0 L 7.4375 0 L 7.4375 -69.8125 Z M 49.59375 -69.8125 "/></g></g></g><g fill="#ffffff" fill-opacity="1"><g transform="translate(504.644527, 111.33989)"><g><path d="M 24.390625 -27.078125 L 24.390625 0 L 7.4375 0 L 7.4375 -69.625 L 34.90625 -69.625 C 42.96875 -69.625 49.25 -67.539062 53.75 -63.375 C 58.25 -59.207031 60.5 -54.179688 60.5 -48.296875 C 60.5 -44.265625 59.273438 -40.332031 56.828125 -36.5 C 54.378906 -32.664062 50.378906 -29.953125 44.828125 -28.359375 L 61.890625 0 L 42.046875 0 L 26.375 -27.078125 Z M 24.390625 -56.71875 L 24.390625 -39.96875 L 34.90625 -39.96875 C 37.488281 -39.96875 39.519531 -40.726562 41 -42.25 C 42.488281 -43.769531 43.234375 -45.769531 43.234375 -48.25 C 43.234375 -50.726562 42.472656 -52.757812 40.953125 -54.34375 C 39.429688 -55.925781 37.414062 -56.71875 34.90625 -56.71875 Z M 24.390625 -56.71875 "/></g></g></g><g fill="#ffffff" fill-opacity="1"><g transform="translate(568.408013, 111.33989)"><g><path d="M 49.59375 -69.8125 L 49.59375 -56.921875 L 24.390625 -56.921875 L 24.390625 -41.953125 L 46.609375 -41.953125 L 46.609375 -29.0625 L 24.390625 -29.0625 L 24.390625 -12.890625 L 49.59375 -12.890625 L 49.59375 0 L 7.4375 0 L 7.4375 -69.8125 Z M 49.59375 -69.8125 "/></g></g></g></g></g><g transform="matrix(1, 0, 0, 1, 174, 498)"><g clip-path="url(#22f66db1b0)"><g fill="#ffffff" fill-opacity="1"><g transform="translate(0.410108, 44.850599)"><g><path d="M 3.046875 0 L 3.046875 -28.546875 L 21.625 -28.546875 L 21.625 -23.25 L 10 -23.25 L 10 -17.109375 L 18.703125 -17.109375 L 18.703125 -11.828125 L 10 -11.828125 L 10 0 Z M 3.046875 0 "/></g></g></g><g fill="#ffffff" fill-opacity="1"><g transform="translate(27.040052, 44.850599)"><g><path d="M 21.1875 0 L 19.59375 -4.796875 L 9.34375 -4.796875 L 7.765625 0 L 0.359375 0 L 10.28125 -28.625 L 18.75 -28.625 L 28.625 0 Z M 11.09375 -10.078125 L 17.84375 -10.078125 L 14.46875 -20.25 Z M 11.09375 -10.078125 "/></g></g></g><g fill="#ffffff" fill-opacity="1"><g transform="translate(59.280309, 44.850599)"><g><path d="M 5.625 -3.875 C 2.789062 -6.632812 1.375 -10.125 1.375 -14.34375 C 1.375 -18.570312 2.789062 -22.0625 5.625 -24.8125 C 8.457031 -27.570312 11.921875 -28.953125 16.015625 -28.953125 C 19.191406 -28.953125 22.007812 -28.109375 24.46875 -26.421875 C 26.9375 -24.742188 28.660156 -22.414062 29.640625 -19.4375 L 21.34375 -19.4375 C 20.257812 -21.519531 18.523438 -22.5625 16.140625 -22.5625 C 13.753906 -22.5625 11.875 -21.816406 10.5 -20.328125 C 9.132812 -18.835938 8.453125 -16.84375 8.453125 -14.34375 C 8.453125 -11.851562 9.132812 -9.863281 10.5 -8.375 C 11.875 -6.882812 13.753906 -6.140625 16.140625 -6.140625 C 18.523438 -6.140625 20.257812 -7.179688 21.34375 -9.265625 L 29.640625 -9.265625 C 28.660156 -6.285156 26.9375 -3.953125 24.46875 -2.265625 C 22.007812 -0.585938 19.191406 0.25 16.015625 0.25 C 11.921875 0.25 8.457031 -1.125 5.625 -3.875 Z M 5.625 -3.875 "/></g></g></g><g fill="#ffffff" fill-opacity="1"><g transform="translate(93.59397, 44.850599)"><g><path d="M 3.046875 0 L 3.046875 -28.546875 L 10 -28.546875 L 10 0 Z M 3.046875 0 "/></g></g></g><g fill="#ffffff" fill-opacity="1"><g transform="translate(109.897635, 44.850599)"><g><path d="M 3.046875 -28.546875 L 10 -28.546875 L 10 -5.28125 L 18.65625 -5.28125 L 18.65625 0 L 3.046875 0 Z M 3.046875 -28.546875 "/></g></g></g><g fill="#ffffff" fill-opacity="1"><g transform="translate(132.624741, 44.850599)"><g><path d="M 3.046875 0 L 3.046875 -28.546875 L 10 -28.546875 L 10 0 Z M 3.046875 0 "/></g></g></g><g fill="#ffffff" fill-opacity="1"><g transform="translate(148.928406, 44.850599)"><g><path d="M 1.09375 -23.25 L 1.09375 -28.546875 L 23.625 -28.546875 L 23.625 -23.25 L 15.8125 -23.25 L 15.8125 0 L 8.859375 0 L 8.859375 -23.25 Z M 1.09375 -23.25 "/></g></g></g><g fill="#ffffff" fill-opacity="1"><g transform="translate(176.899942, 44.850599)"><g><path d="M 17.4375 0 L 10.484375 0 L 10.484375 -9.1875 L 0.609375 -28.546875 L 8.5 -28.546875 L 13.984375 -15.65625 L 19.4375 -28.546875 L 27.328125 -28.546875 L 17.4375 -9.1875 Z M 17.4375 0 "/></g></g></g><g fill="#ffffff" fill-opacity="1"><g transform="translate(208.083198, 44.850599)"><g/></g></g><g fill="#ffffff" fill-opacity="1"><g transform="translate(223.533139, 44.850599)"><g><path d="M 35.375 -28.546875 L 35.375 0 L 28.421875 0 L 28.421875 -16.09375 L 21.796875 0 L 16.625 0 L 10 -16.09375 L 10 0 L 3.046875 0 L 3.046875 -28.546875 L 11.015625 -28.546875 L 19.234375 -8.859375 L 27.40625 -28.546875 Z M 35.375 -28.546875 "/></g></g></g><g fill="#ffffff" fill-opacity="1"><g transform="translate(265.205254, 44.850599)"><g><path d="M 21.1875 0 L 19.59375 -4.796875 L 9.34375 -4.796875 L 7.765625 0 L 0.359375 0 L 10.28125 -28.625 L 18.75 -28.625 L 28.625 0 Z M 11.09375 -10.078125 L 17.84375 -10.078125 L 14.46875 -20.25 Z M 11.09375 -10.078125 "/></g></g></g><g fill="#ffffff" fill-opacity="1"><g transform="translate(297.445511, 44.850599)"><g><path d="M 21.625 -28.625 L 28.578125 -28.625 L 28.578125 0 L 21.625 0 L 10 -18.015625 L 10 0 L 3.046875 0 L 3.046875 -28.625 L 10 -28.625 L 21.625 -10.609375 Z M 21.625 -28.625 "/></g></g></g><g fill="#ffffff" fill-opacity="1"><g transform="translate(332.32833, 44.850599)"><g><path d="M 21.1875 0 L 19.59375 -4.796875 L 9.34375 -4.796875 L 7.765625 0 L 0.359375 0 L 10.28125 -28.625 L 18.75 -28.625 L 28.625 0 Z M 11.09375 -10.078125 L 17.84375 -10.078125 L 14.46875 -20.25 Z M 11.09375 -10.078125 "/></g></g></g><g fill="#ffffff" fill-opacity="1"><g transform="translate(364.568586, 44.850599)"><g><path d="M 5.625 -3.875 C 2.789062 -6.632812 1.375 -10.125 1.375 -14.34375 C 1.375 -18.570312 2.789062 -22.0625 5.625 -24.8125 C 8.457031 -27.570312 11.921875 -28.953125 16.015625 -28.953125 C 19.191406 -28.953125 22.007812 -28.109375 24.46875 -26.421875 C 26.9375 -24.742188 28.660156 -22.414062 29.640625 -19.4375 L 21.34375 -19.4375 C 20.257812 -21.519531 18.523438 -22.5625 16.140625 -22.5625 C 13.753906 -22.5625 11.875 -21.816406 10.5 -20.328125 C 9.132812 -18.835938 8.453125 -16.84375 8.453125 -14.34375 C 8.453125 -11.851562 9.132812 -9.863281 10.5 -8.375 C 11.875 -6.882812 13.710938 -6.140625 16.015625 -6.140625 C 17.671875 -6.140625 19.019531 -6.550781 20.0625 -7.375 C 21.101562 -8.207031 21.800781 -9.3125 22.15625 -10.6875 L 14.109375 -10.6875 L 14.109375 -15.984375 L 29.640625 -15.984375 L 29.640625 -10.6875 C 29.117188 -8.09375 27.695312 -5.671875 25.375 -3.421875 C 24.257812 -2.328125 22.878906 -1.441406 21.234375 -0.765625 C 19.597656 -0.0859375 17.859375 0.25 16.015625 0.25 C 11.921875 0.25 8.457031 -1.125 5.625 -3.875 Z M 5.625 -3.875 "/></g></g></g><g fill="#ffffff" fill-opacity="1"><g transform="translate(398.882248, 44.850599)"><g><path d="M 20.328125 -28.625 L 20.328125 -23.34375 L 10 -23.34375 L 10 -17.203125 L 19.109375 -17.203125 L 19.109375 -11.90625 L 10 -11.90625 L 10 -5.28125 L 20.328125 -5.28125 L 20.328125 0 L 3.046875 0 L 3.046875 -28.625 Z M 20.328125 -28.625 "/></g></g></g><g fill="#ffffff" fill-opacity="1"><g transform="translate(425.390231, 44.850599)"><g><path d="M 35.375 -28.546875 L 35.375 0 L 28.421875 0 L 28.421875 -16.09375 L 21.796875 0 L 16.625 0 L 10 -16.09375 L 10 0 L 3.046875 0 L 3.046875 -28.546875 L 11.015625 -28.546875 L 19.234375 -8.859375 L 27.40625 -28.546875 Z M 35.375 -28.546875 "/></g></g></g><g fill="#ffffff" fill-opacity="1"><g transform="translate(467.062373, 44.850599)"><g><path d="M 20.328125 -28.625 L 20.328125 -23.34375 L 10 -23.34375 L 10 -17.203125 L 19.109375 -17.203125 L 19.109375 -11.90625 L 10 -11.90625 L 10 -5.28125 L 20.328125 -5.28125 L 20.328125 0 L 3.046875 0 L 3.046875 -28.625 Z M 20.328125 -28.625 "/></g></g></g><g fill="#ffffff" fill-opacity="1"><g transform="translate(493.570332, 44.850599)"><g><path d="M 21.625 -28.625 L 28.578125 -28.625 L 28.578125 0 L 21.625 0 L 10 -18.015625 L 10 0 L 3.046875 0 L 3.046875 -28.625 L 10 -28.625 L 21.625 -10.609375 Z M 21.625 -28.625 "/></g></g></g><g fill="#ffffff" fill-opacity="1"><g transform="translate(528.453151, 44.850599)"><g><path d="M 1.09375 -23.25 L 1.09375 -28.546875 L 23.625 -28.546875 L 23.625 -23.25 L 15.8125 -23.25 L 15.8125 0 L 8.859375 0 L 8.859375 -23.25 Z M 1.09375 -23.25 "/></g></g></g></g></g></svg>